<svg xmlns="http://www.w3.org/2000/svg" xmlns:svg="http://www.w3.org/2000/svg" xmlns:xlink="http://www.w3.org/1999/xlink" version="1.0" height="844.4549165725709pt" width="1565pt" viewBox="5 76.99999999999999 1573 850.4549165725709" ><defs><style type="text/css">
            @font-face {
                font-family: 'noto_regular';
                src: url('https://app.creately.com/diagram/assets/fonts/noto/noto-regular.woff') format('woff'),
                     url('https://app.creately.com/diagram/assets/fonts/noto/noto-regular.woff2') format('woff2');
                font-weight: normal;
                font-style: normal;
            }
        p {
            margin: 0;
        }
        </style></defs><defs><style>
            span{ display: inline-block; }
        </style></defs><g id="1qk6ahqpas"><g transform="translate(175 259.8500000000001)"><path d="M 3.8391692638397217,3.6922495365142822 L 1224.6949951648712,3.6922495365142822 L 1224.6949951648712,660.9126670360565 L 3.8391692638397217,660.9126670360565 Z" fill="rgb(246, 246, 246)" stroke="rgb(98, 98, 98)" stroke-width="1.5" vector-effect="non-scaling-stroke"/></g></g><g id="77tmrkgtxz"><g transform="translate(330 765)"><path d="M 0.5,0.5 L 159.5,0.5 L 159.5,89.5 L 0.5,89.5 Z" fill="rgb(246, 246, 246)" stroke="rgb(98, 98, 98)" stroke-width="1.5" vector-effect="non-scaling-stroke"/></g><g transform="translate(357.2, 787.5) rotate(0, 0, 0)" width="121" height="41"><text text-decoration="none" x="0" fill="#000000" font-size="27pt" font-family="Arial"  y="38">Group&#160;</text><text text-decoration="none" x="116" fill="#4b4b4b" font-size="10pt" font-family="noto_regular"  y="38"></text></g></g><g id="cxnwbycdxp"><g transform="translate(330 565)"><path d="M 0.5,0.5 L 159.5,0.5 L 159.5,89.5 L 0.5,89.5 Z" fill="rgb(246, 246, 246)" stroke="rgb(98, 98, 98)" stroke-width="1.5" vector-effect="non-scaling-stroke"/></g><g transform="translate(359.45, 587.5) rotate(0, 0, 0)" width="115" height="41"><text text-decoration="none" x="0" fill="#000000" font-size="27pt" font-family="Arial"  y="38">Notes&#160;</text><text text-decoration="none" x="108" fill="#4b4b4b" font-size="10pt" font-family="noto_regular"  y="38"></text></g></g><g id="27xd4hvqlx"><g transform="translate(965 715)"><path d="M 0.5,0.5 L 159.5,0.5 L 159.5,89.5 L 0.5,89.5 Z" fill="rgb(246, 246, 246)" stroke="rgb(98, 98, 98)" stroke-width="1.5" vector-effect="non-scaling-stroke"/></g><g transform="translate(990, 737.5) rotate(0, 0, 0)" width="127" height="41"><text text-decoration="none" x="0" fill="#000000" font-size="27pt" font-family="Arial"  y="38">Rating&#160;</text><text text-decoration="none" x="115" fill="#4b4b4b" font-size="10pt" font-family="noto_regular"  y="38"></text></g></g><g id="7a9uiqxzl3"><g transform="translate(1100 495)"><path d="M 0.5,0.5 L 159.5,0.5 L 159.5,89.5 L 0.5,89.5 Z" fill="rgb(246, 246, 246)" stroke="rgb(98, 98, 98)" stroke-width="1.5" vector-effect="non-scaling-stroke"/></g><g transform="translate(1103.975, 497.5) rotate(0, 76, 0)" width="152" height="82"><text text-decoration="none" x="47.5" fill="#000000" font-size="27pt" font-family="Arial"  y="38">File</text><text text-decoration="none" x="104.5" fill="#000000" font-size="27pt" font-family="Arial"  y="38"></text><text text-decoration="none" x="6.5" fill="#000000" font-size="27pt" font-family="Arial"  y="87">Storage&#160;</text><text text-decoration="none" x="145.5" fill="#4b4b4b" font-size="10pt" font-family="noto_regular"  y="87"></text></g></g><g id="3xra1irlma"><g transform="translate(325 320)"><path d="M 0.5,0.5 L 159.5,0.5 L 159.5,89.5 L 0.5,89.5 Z" fill="rgb(246, 246, 246)" stroke="rgb(98, 98, 98)" stroke-width="1.5" vector-effect="non-scaling-stroke"/></g><g transform="translate(350, 342.5) rotate(0, 0, 0)" width="123" height="41"><text text-decoration="none" x="0" fill="#000000" font-size="27pt" font-family="Arial"  y="38">Profile&#160;</text><text text-decoration="none" x="118" fill="#4b4b4b" font-size="10pt" font-family="noto_regular"  y="38"></text></g></g><g id="7kdrpv2zqa"><g transform="translate(724.95 320)"><path d="M 0.5,0.5 L 159.5,0.5 L 159.5,89.5 L 0.5,89.5 Z" fill="rgb(246, 246, 246)" stroke="rgb(98, 98, 98)" stroke-width="1.5" vector-effect="non-scaling-stroke"/></g><g transform="translate(728.4250000000001, 326.95) rotate(0, 76.5, 0)" width="153" height="66"><text text-decoration="none" x="8.5" fill="#000000" font-size="21pt" font-family="Arial"  y="30">Password/</text><text text-decoration="none" x="144.5" fill="#000000" font-size="21pt" font-family="Arial"  y="30"></text><text text-decoration="none" x="5.5" fill="#000000" font-size="21pt" font-family="Arial"  y="68">Username&#160;</text><text text-decoration="none" x="147.5" fill="#4b4b4b" font-size="10pt" font-family="noto_regular"  y="68"></text></g></g><g id="1skgt9pqes"><g transform="translate(1100 320)"><path d="M 0.5,0.5 L 159.5,0.5 L 159.5,89.5 L 0.5,89.5 Z" fill="rgb(246, 246, 246)" stroke="rgb(98, 98, 98)" stroke-width="1.5" vector-effect="non-scaling-stroke"/></g><g transform="translate(1113.9, 344.7) rotate(0, 0, 0)" width="143" height="33"><text text-decoration="none" x="0" fill="#000000" font-size="21pt" font-family="Arial"  y="30">Database&#160;</text><text text-decoration="none" x="131" fill="#4b4b4b" font-size="10pt" font-family="noto_regular"  y="30"></text></g></g><g id="650doq9elb"><g transform="translate(10 565.25)"><path d="M 0.5000067949295044,0.5006240606307983 L 159.5021675825119,0.5006240606307983 L 159.5021675825119,89.6117068529129 L 0.5000067949295044,89.6117068529129 Z" fill="rgb(246, 246, 246)" stroke="rgb(98, 98, 98)" stroke-width="1.5" vector-effect="non-scaling-stroke"/></g><g transform="translate(48.3, 587.8) rotate(0, 0, 0)" width="93" height="41"><text text-decoration="none" x="0" fill="#000000" font-size="27pt" font-family="Arial"  y="38">User&#160;</text><text text-decoration="none" x="87" fill="#4b4b4b" font-size="10pt" font-family="noto_regular"  y="38"></text></g></g><g id="3wgsapw4yu"><g transform="translate(1415 320)"><path d="M 0.5,0.5 L 159.5,0.5 L 159.5,89.5 L 0.5,89.5 Z" fill="rgb(246, 246, 246)" stroke="rgb(98, 98, 98)" stroke-width="1.5" vector-effect="non-scaling-stroke"/></g><g transform="translate(1440, 342.5) rotate(0, 0, 0)" width="126" height="41"><text text-decoration="none" x="0" fill="#000000" font-size="27pt" font-family="Arial"  y="38">Admin&#160;</text><text text-decoration="none" x="118" fill="#4b4b4b" font-size="10pt" font-family="noto_regular"  y="38"></text></g></g><g id="108nh3qaim"><mask id="f4553" x="157" y="597" width="186" height="26.25" maskUnits="userSpaceOnUse"><rect x="157" y="597" width="186" height="26.25" fill="white" /><rect x="240" y="590.5" width="120" height="39" fill="black" /></mask><g mask="url(#f4553)"><path d="M 170,610.25 L 250.0010871887207,610.25 L 250.0010871887207,610.125 L 250.0010871887207,610 L 330,610" fill="none" stroke="#626262" stroke-width="1.5" stroke-linecap="round" stroke-linejoin="round"/></g><g transform="translate(243, 593.5)" width="114" height="33"><text text-decoration="none" x="3.5" fill="rgb(0, 0, 0)" font-size="21pt" font-family="Arial"  y="30">Uploads</text><text text-decoration="none" x="110.5" fill="#4b4b4b" font-size="10pt" font-family="noto_regular"  y="30"></text></g></g><g id="24h6mka6gd"><mask id="c2f28" x="477" y="527" width="636" height="96" maskUnits="userSpaceOnUse"><rect x="477" y="527" width="636" height="96" fill="white" /><rect x="930.4567010309278" y="520.5" width="185" height="39" fill="black" /></mask><g mask="url(#c2f28)"><path d="M 490,610 L 795,610 L 795,575 L 795,540 L 1100,540" fill="none" stroke="#626262" stroke-width="1.5" stroke-linecap="round" stroke-linejoin="round"/></g><g transform="translate(933.4567010309278, 523.5)" width="179" height="33"><text text-decoration="none" x="6" fill="rgb(0, 0, 0)" font-size="21pt" font-family="Arial"  y="30">Contained&#160;</text><text text-decoration="none" x="148" fill="rgb(0, 0, 0)" font-size="21pt" font-family="Arial"  y="30">In</text><text text-decoration="none" x="173" fill="#4b4b4b" font-size="10pt" font-family="noto_regular"  y="30"></text></g></g><g id="6cyuj6h64o"><mask id="58e03" x="397" y="642" width="26" height="136" maskUnits="userSpaceOnUse"><rect x="397" y="642" width="26" height="136" fill="white" /><rect x="343.5" y="690.5" width="133" height="39" fill="black" /></mask><g mask="url(#58e03)"><path d="M 410,655 L 410,765" fill="none" stroke="#626262" stroke-width="1.5" stroke-linecap="round" stroke-linejoin="round"/></g><g transform="translate(346.5, 693.5)" width="127" height="33"><text text-decoration="none" x="4.5" fill="rgb(0, 0, 0)" font-size="21pt" font-family="Arial"  y="30">Placed&#160;</text><text text-decoration="none" x="97.5" fill="rgb(0, 0, 0)" font-size="21pt" font-family="Arial"  y="30">In</text><text text-decoration="none" x="122.5" fill="#4b4b4b" font-size="10pt" font-family="noto_regular"  y="30"></text></g></g><g id="8j0wf6pju7"><mask id="7bdde" x="77" y="352" width="261" height="226.25" maskUnits="userSpaceOnUse"><rect x="77" y="352" width="261" height="226.25" fill="white" /><rect x="238" y="345.5" width="114" height="39" fill="black" /></mask><g mask="url(#7bdde)"><path d="M 325,365 L 90,365 L 90,565.25" fill="none" stroke="#626262" stroke-width="1.5" stroke-linecap="round" stroke-linejoin="round"/></g><g transform="translate(241, 348.5)" width="108" height="33"><text text-decoration="none" x="4" fill="rgb(0, 0, 0)" font-size="21pt" font-family="Arial"  y="30">Creates</text><text text-decoration="none" x="104" fill="#4b4b4b" font-size="10pt" font-family="noto_regular"  y="30"></text></g></g><g id="286f3i8vq7"><mask id="831f2" x="472" y="352" width="265.95000000000005" height="26" maskUnits="userSpaceOnUse"><rect x="472" y="352" width="265.95000000000005" height="26" fill="white" /><rect x="554.3365456431535" y="345.5" width="96" height="39" fill="black" /></mask><g mask="url(#831f2)"><path d="M 485,365 L 724.95,365" fill="none" stroke="#626262" stroke-width="1.5" stroke-linecap="round" stroke-linejoin="round"/></g><g transform="translate(557.3365456431535, 348.5)" width="90" height="33"><text text-decoration="none" x="3.5" fill="rgb(0, 0, 0)" font-size="21pt" font-family="Arial"  y="30">With&#160;</text><text text-decoration="none" x="70.5" fill="rgb(0, 0, 0)" font-size="21pt" font-family="Arial"  y="30">a</text><text text-decoration="none" x="86.5" fill="#4b4b4b" font-size="10pt" font-family="noto_regular"  y="30"></text></g></g><g id="1ru7c18mkm"><mask id="97e68" x="871.95" y="352" width="241.04999999999995" height="26" maskUnits="userSpaceOnUse"><rect x="871.95" y="352" width="241.04999999999995" height="26" fill="white" /><rect x="925.975" y="345.5" width="133" height="39" fill="black" /></mask><g mask="url(#97e68)"><path d="M 884.95,365 L 1100,365" fill="none" stroke="#626262" stroke-width="1.5" stroke-linecap="round" stroke-linejoin="round"/></g><g transform="translate(928.975, 348.5)" width="127" height="33"><text text-decoration="none" x="4.5" fill="rgb(0, 0, 0)" font-size="21pt" font-family="Arial"  y="30">Stored&#160;</text><text text-decoration="none" x="97.5" fill="rgb(0, 0, 0)" font-size="21pt" font-family="Arial"  y="30">In</text><text text-decoration="none" x="122.5" fill="#4b4b4b" font-size="10pt" font-family="noto_regular"  y="30"></text></g></g><g id="zu9j2xm6ia"><mask id="1991c" x="477" y="597" width="501" height="176" maskUnits="userSpaceOnUse"><rect x="477" y="597" width="501" height="176" fill="white" /><rect x="844.366097149101" y="740.5" width="104" height="39" fill="black" /></mask><g mask="url(#1991c)"><path d="M 490,610 L 727.5,610 L 727.5,685 L 727.5,760 L 965,760" fill="none" stroke="#626262" stroke-width="1.5" stroke-linecap="round" stroke-linejoin="round"/></g><g transform="translate(847.366097149101, 743.5)" width="98" height="33"><text text-decoration="none" x="4" fill="rgb(0, 0, 0)" font-size="21pt" font-family="Arial"  y="30">Have&#160;</text><text text-decoration="none" x="78" fill="rgb(0, 0, 0)" font-size="21pt" font-family="Arial"  y="30">a</text><text text-decoration="none" x="94" fill="#4b4b4b" font-size="10pt" font-family="noto_regular"  y="30"></text></g></g><g id="1k7u3jnose"><mask id="82f67" x="1247" y="352" width="181" height="26" maskUnits="userSpaceOnUse"><rect x="1247" y="352" width="181" height="26" fill="white" /><rect x="1286.5" y="345.5" width="102" height="39" fill="black" /></mask><g mask="url(#82f67)"><path d="M 1415,365 L 1260,365" fill="none" stroke="#626262" stroke-width="1.5" stroke-linecap="round" stroke-linejoin="round"/></g><g transform="translate(1289.5, 348.5)" width="96" height="33"><text text-decoration="none" x="5" fill="rgb(0, 0, 0)" font-size="21pt" font-family="Arial"  y="30">Access</text><text text-decoration="none" x="91" fill="#4b4b4b" font-size="10pt" font-family="noto_regular"  y="30"></text></g></g><g id="21jo1v3n86"><g><path d="M 1180,410 L 1180,495" fill="none" stroke="#626262" stroke-width="1.5" stroke-linecap="round" stroke-linejoin="round"/></g></g><g id="1wtsv12ll3"><g transform="translate(275 79.99999999999999)"><rect x="0" y="0" width="1111.2438642713762" height="169.88888888888906" fill="rgba(255,255,255,0.01)" stroke="rgba(255,255,255,0.01)" stroke-width="NaN" stroke-linecap="round" stroke-linejoin="round"/></g><g transform="translate(344.6219321356881, 122.94444444444451) rotate(0, 486, 42)" width="972" height="84"><text text-decoration="none" x="40" fill="rgb(0, 0, 0)" font-size="54pt" font-family="Arial"  y="77">System&#160;</text><text text-decoration="none" x="301" fill="rgb(0, 0, 0)" font-size="54pt" font-family="Arial"  y="77">Boundary&#160;</text><text text-decoration="none" x="647" fill="rgb(0, 0, 0)" font-size="54pt" font-family="Arial"  y="77">Diagram</text><text text-decoration="none" x="932" fill="#4b4b4b" font-size="10pt" font-family="noto_regular"  y="77"></text></g></g></svg>